<svg width="21" height="21" viewBox="0 0 21 21" fill="none" xmlns="http://www.w3.org/2000/svg">
<g id="&#240;&#159;&#166;&#134; icon &#34;edit&#34;">
<path id="Vector" d="M14.0217 1.18033C14.2191 0.98225 14.4868 0.870972 14.7659 0.870972C15.0451 0.870972 15.3128 0.98225 15.5102 1.18033L19.7207 5.4068C19.9181 5.60495 20.0289 5.87365 20.0289 6.15383C20.0289 6.43401 19.9181 6.70271 19.7207 6.90086L6.03637 20.6369C5.839 20.835 5.5713 20.9464 5.29215 20.9465H1.08157C0.802396 20.9465 0.534652 20.8351 0.337243 20.637C0.139834 20.4388 0.0289307 20.1701 0.0289307 19.8899V15.6634C0.0289903 15.3832 0.139933 15.1145 0.337355 14.9164L10.8638 4.35019L14.0217 1.18033ZM11.608 6.59127L2.13422 16.1008V18.8332H4.85635L14.3301 9.32368L11.608 6.59127ZM15.8186 7.82963L17.4881 6.15383L14.7659 3.42142L13.0964 5.09721L15.8186 7.82963Z" fill="#00205B"/>
</g>
</svg>
